<svg xmlns="http://www.w3.org/2000/svg" viewBox="0 0 160 637.82"><defs><style>.cls-1,.cls-3,.cls-4{fill:none;}.cls-1,.cls-3{stroke:#fff;stroke-linecap:round;stroke-linejoin:round;stroke-width:3px;}.cls-1,.cls-2{opacity:0.5;}</style></defs><g id="Layer_2" data-name="Layer 2"><g id="Layer_1-2" data-name="Layer 1"><polygon class="cls-1" points="136.61 385.02 130.67 374.75 124.75 385.03 118.82 395.31 130.68 395.3 142.55 395.29 136.61 385.02"/><polygon class="cls-1" points="49.49 601.28 52.56 589.82 41.1 592.9 29.64 595.98 38.04 604.36 46.43 612.75 49.49 601.28"/><polygon class="cls-1" points="41.11 325.36 51.38 319.42 41.1 313.5 30.82 307.57 30.83 319.44 30.83 331.3 41.11 325.36"/><polygon class="cls-1" points="54.17 110.59 64.44 104.65 54.16 98.73 43.88 92.8 43.89 104.67 43.9 116.53 54.17 110.59"/><path class="cls-1" d="M112.73,282.19a9,9,0,1,1-9-9A9,9,0,0,1,112.73,282.19Z"/><path class="cls-1" d="M74.44,416.94a9,9,0,1,1-9-9A9,9,0,0,1,74.44,416.94Z"/><path class="cls-1" d="M116,30.92A9,9,0,1,1,116,13"/><rect class="cls-1" x="41.1" y="487.37" width="17.91" height="17.91"/><g class="cls-2"><path class="cls-3" d="M29.5,196.52c-3.91,0-3.24-6.93-8.23-6.93"/><path class="cls-3" d="M45.94,196.52c-3.91,0-3.23-6.93-8.22-6.93"/><path class="cls-3" d="M29.5,196.52c3.9,0,3.23-6.93,8.22-6.93"/><path class="cls-3" d="M45.94,196.52c3.91,0,3.24-6.93,8.22-6.93"/></g><g class="cls-2"><path class="cls-3" d="M142.55,129.34c0,3.9-6.93,3.23-6.93,8.22"/><path class="cls-3" d="M142.55,112.89c0,3.91-6.93,3.24-6.93,8.22"/><path class="cls-3" d="M142.55,129.34c0-3.91-6.93-3.24-6.93-8.23"/><path class="cls-3" d="M142.55,112.89c0-3.91-6.93-3.23-6.93-8.22"/></g><line class="cls-1" x1="17.29" y1="35.74" x2="37.58" y2="35.74"/><line class="cls-1" x1="115.56" y1="536.19" x2="129.9" y2="521.84"/><path class="cls-1" d="M132.57,615.75a3.54,3.54,0,1,1,1.11-4.89A3.54,3.54,0,0,1,132.57,615.75Z"/><path class="cls-1" d="M128.08,196.06a3.55,3.55,0,1,1,1.11-4.89A3.54,3.54,0,0,1,128.08,196.06Z"/><rect class="cls-4" width="160" height="637.82"/></g></g></svg>