<svg xmlns="http://www.w3.org/2000/svg" viewBox="0 0 816.24 817"><defs><style>.cls-1{fill:#fff;}.cls-2{fill:none;}</style></defs><title>shhut-logo-3</title><g id="Layer_2" data-name="Layer 2"><g id="Layer_1-2" data-name="Layer 1"><path class="cls-1" d="M420.81,733.67c0-108.39-2.31-216.08.61-323.62,3.27-120.16,65.84-204.69,169.56-261,9.77-5.31,20.24-9.31,30.32-14.06,6.6-3.11,8.76-1.15,8.72,6-.23,37.27-.37,74.53,0,111.8.12,11.83-4.33,20.3-13.56,27.41C579.23,309,554.19,346,541.71,391.42a259.4,259.4,0,0,0-9,67.41c-.36,60.45-.1,120.9-.11,181.35,0,19.08-.63,19.73-18.88,26.51-32.83,12.2-60.74,31.38-82.91,58.74C428.42,728.39,427.28,733.14,420.81,733.67Z"/><path class="cls-1" d="M394,736.68c-13.8-17.84-27-32-42.79-43.53-17.53-12.84-36.5-22.89-57.35-28.54-9.55-2.58-10.81-7.47-10.76-15.84q.44-76.44.11-152.88c-.15-37.62.22-75.26-11.49-111.82-13.4-41.87-37.2-76.34-71.78-103.18-10.1-7.84-14.54-16.68-14.41-29.51.37-36-.1-72.06-.6-108.09-.12-8.59.37-12.17,10.65-7.73,96.66,41.72,164.47,109.1,191.07,213.32a252.94,252.94,0,0,1,7.93,61.44c.38,106.07.22,212.13.23,318.19C394.84,730.07,394.55,731.62,394,736.68Z"/><path class="cls-1" d="M252,712.8c-5.38-6.51-10.53-13.23-16.19-19.5C218.14,673.72,197,658.64,173.44,647c-28.29-14-50.19-33.41-56.58-66.06a72.18,72.18,0,0,1-1.41-13.5c-.07-94.85.21-189.7-.36-284.55-.08-13,4.17-13.18,14.06-9.85,68.74,23.18,107.77,71.86,122.2,141.75,5.25,25.38,3.19,51.21,3.43,76.8.67,73.27.23,146.56.23,219.85Z"/><path class="cls-1" d="M565.06,712.69c-5-3.37-4.08-7.32-4.1-10.87-.63-80.29-2.07-160.58-.08-240.88,1.07-42.81,7.53-83.94,32.83-120.09,23.37-33.39,54.47-55.87,93.36-68.11,10.53-3.32,13.38-1.18,13.32,10-.4,77-.26,154.05-.13,231.07,0,17.77,1.93,35.48.1,53.31-3.34,32.33-18.48,57-46.57,73.32-16.74,9.73-34.57,17.69-49.73,30S575.36,696.14,565.06,712.69Z"/><path class="cls-1" d="M409.61,313.21c-6.85-4-6.21-10.18-8-14.91C382.13,246,347.56,205,304.82,170.37c-7.14-5.78-8-10.13-4.49-18.57,12.4-30.05,37.47-45.05,65.07-57.51,2.25-1,4.7-1.67,6.82-2.89,22.92-13.14,45.33-15,70.42-3.34,31,14.44,57.1,33,72.94,64,5.59,10.93-1.8,16.63-9.22,22.5-34.19,27.07-61.82,59.57-81.17,98.83C419,285.9,413.36,298.67,409.61,313.21Z"/><rect class="cls-2" width="816.24" height="817"/></g></g></svg>