<svg xmlns="http://www.w3.org/2000/svg" viewBox="0 0 295.05 590.1"><defs><style>.cls-1{fill:none;}</style></defs><g id="Layer_2" data-name="Layer 2"><g id="Layer_1-2" data-name="Layer 1"><rect class="cls-1" width="295.05" height="590.1"/><path d="M282.67,581.29c-10.57-13.31-20-24.21-31.31-33.25-16.81-13.42-35.37-23.8-56.09-29.44-8.39-2.28-9.35-6.63-9.31-13.86q.36-66.69.1-133.38c-.13-32.83.17-65.67-10.06-97.56-11.71-36.52-32.47-66.6-62.66-90-8.83-6.84-12.62-14.61-12.5-25.78.32-31.43-.07-62.88-.53-94.31-.12-7.73.61-10.4,9.37-6.63C194,93.5,253.11,152.33,276.3,243.25a220,220,0,0,1,6.9,53.61c.33,92.54.2,185.07.21,277.61C283.41,575.81,283.13,577.16,282.67,581.29Z"/><path d="M161,561.58c-7.89-5.46-11.08-12.51-16.07-17.88a185.7,185.7,0,0,0-54.44-40.35c-24.65-12.17-43.83-29-49.46-57.49a61.19,61.19,0,0,1-1.3-11.75c-.07-83.07,0-166.13-.2-249.2,0-8.66,1.3-11.19,10.71-8.38,39.69,11.83,68.28,36.6,89,71.93,16.43,28,21.86,58.12,21.77,90-.2,71.49-.05,143,0,214.46Z"/><path d="M295.05,8.87V211.4c-4.65-3.54-4.49-8.83-6-13-16.86-45.36-46.89-80.75-83.85-110.74-6.61-5.35-7.27-9.35-4-17.1,11.13-26,33-39.07,57.14-49.76,1.31-.58,2.72-1,4-1.66C273.18,13.25,283.92,9.42,295.05,8.87Z"/></g></g></svg>